<?xml version="1.0" standalone="no"?>
<!DOCTYPE svg PUBLIC "-//W3C//DTD SVG 20010904//EN"
 "http://www.w3.org/TR/2001/REC-SVG-20010904/DTD/svg10.dtd">
<svg version="1.0" xmlns="http://www.w3.org/2000/svg"
 width="512.000000pt" height="512.000000pt" viewBox="0 0 512.000000 512.000000"
 preserveAspectRatio="xMidYMid meet">
<metadata>
Created by potrace 1.11, written by Peter Selinger 2001-2013
</metadata>
<g transform="translate(0.000000,512.000000) scale(0.100000,-0.100000)"
fill="#000000" stroke="none">
<path d="M1076 4643 c-2 -2 -11 -3 -105 -18 -144 -23 -301 -107 -416 -222
-123 -123 -205 -291 -229 -468 -4 -28 -7 -1736 -4 -1915 1 -39 29 -162 51
-222 43 -118 152 -269 253 -348 83 -66 211 -126 324 -151 76 -17 67 -17 543
-18 l427 -1 1 -332 c0 -231 4 -343 12 -367 7 -19 29 -48 50 -65 33 -26 47 -31
95 -31 62 0 76 8 187 100 26 22 80 67 119 99 39 32 73 62 76 66 3 3 23 19 45
36 21 16 47 36 56 44 8 8 30 26 48 40 17 14 42 34 54 46 12 11 76 65 142 119
66 54 125 103 130 109 6 7 28 25 49 41 22 17 54 43 70 58 17 15 40 30 51 32
11 3 247 6 525 8 519 4 551 6 645 46 11 5 38 17 60 26 242 106 436 375 460
640 2 22 4 42 4 45 6 35 4 1860 -2 1860 -5 0 -6 4 -3 8 2 4 -2 39 -9 77 -64
332 -321 585 -655 644 -30 5 -136 10 -235 10 -399 3 -2817 6 -2819 4z m3024
-334 c75 -17 166 -66 229 -125 69 -64 124 -163 141 -253 6 -35 10 -399 9 -985
-1 -1003 1 -978 -53 -1085 -36 -71 -125 -163 -194 -199 -115 -61 -124 -62
-698 -62 -326 0 -533 -4 -549 -10 -21 -8 -111 -75 -135 -100 -3 -3 -72 -62
-155 -130 -82 -68 -155 -129 -161 -135 -38 -35 -283 -235 -287 -235 -3 0 -7
114 -9 253 -3 281 -4 283 -76 332 l-36 24 -505 1 c-569 1 -587 1 -663 30 -70
26 -150 79 -141 92 3 6 1 8 -4 5 -29 -18 -131 132 -156 229 -23 87 -25 1911
-2 1997 45 171 177 306 346 351 46 12 281 15 1554 15 979 0 1516 -3 1545 -10z"/>
<path d="M2197 3998 c2 -5 -2 -8 -11 -8 -23 0 -77 -51 -92 -87 -12 -27 -14
-192 -14 -935 0 -497 0 -905 1 -908 5 -30 10 -43 28 -68 48 -68 38 -67 438
-70 404 -3 409 -3 459 64 l29 37 2 929 c3 1030 8 961 -64 1015 l-36 28 -373 5
c-205 3 -370 2 -367 -2z m523 -1038 l0 -720 -160 0 -160 0 0 720 0 720 160 0
160 0 0 -720z"/>
<path d="M1066 3510 c-16 -5 -40 -19 -54 -32 -53 -49 -52 -36 -52 -758 0 -602
2 -674 17 -708 9 -20 15 -40 15 -44 -1 -5 1 -7 6 -6 4 1 20 -6 37 -17 28 -19
48 -20 406 -20 366 0 378 1 405 21 15 11 37 33 48 48 21 27 21 36 21 726 l0
698 -31 39 c-17 21 -46 43 -65 50 -40 14 -707 16 -753 3z m534 -790 l0 -480
-160 1 -160 0 0 479 1 479 159 0 160 0 0 -479z"/>
<path d="M3400 3363 c-14 -2 -44 -6 -67 -9 -26 -3 -56 -16 -74 -32 -61 -51
-60 -37 -59 -684 1 -653 -1 -633 66 -684 l37 -29 377 0 377 0 37 29 c68 52 66
32 66 679 0 320 -2 592 -4 604 -8 38 -26 63 -67 93 l-41 29 -305 1 c-168 0
-309 2 -312 3 -3 2 -17 2 -31 0z m440 -723 l0 -400 -160 0 -160 0 0 400 0 400
160 0 160 0 0 -400z"/>
</g>
</svg>
